<?xml version="1.0" encoding="UTF-8" standalone="no"?>
<!DOCTYPE svg PUBLIC "-//W3C//DTD SVG 1.1//EN"
 "http://www.w3.org/Graphics/SVG/1.1/DTD/svg11.dtd">
<!-- Generated by graphviz version 9.0.0 (20230911.1827)
 -->
<!-- Pages: 1 -->
<svg width="118pt" height="188pt"
 viewBox="0.00 0.00 117.78 188.00" xmlns="http://www.w3.org/2000/svg" xmlns:xlink="http://www.w3.org/1999/xlink">
<g id="graph0" class="graph" transform="scale(1 1) rotate(0) translate(4 184)">
<polygon fill="white" stroke="none" points="-4,4 -4,-184 113.78,-184 113.78,4 -4,4"/>
<!-- do12345 -->
<g id="node1" class="node">
<title>do12345</title>
<ellipse fill="none" stroke="black" stroke-dasharray="5,2" cx="54.89" cy="-162" rx="54.89" ry="18"/>
<text text-anchor="middle" x="54.89" y="-157.32" font-family="Times,serif" font-size="14.00">do12345</text>
</g>
<!-- dopatch -->
<g id="node2" class="node">
<title>dopatch</title>
<ellipse fill="none" stroke="black" cx="54.89" cy="-90" rx="51.21" ry="18"/>
<text text-anchor="middle" x="54.89" y="-85.33" font-family="Times,serif" font-size="14.00">dopatch</text>
</g>
<!-- do12345&#45;&gt;dopatch -->
<g id="edge1" class="edge">
<title>do12345&#45;&gt;dopatch</title>
<path fill="none" stroke="black" d="M54.89,-143.7C54.89,-136.41 54.89,-127.73 54.89,-119.54"/>
<polygon fill="black" stroke="black" points="58.39,-119.62 54.89,-109.62 51.39,-119.62 58.39,-119.62"/>
</g>
<!-- install -->
<g id="node3" class="node">
<title>install</title>
<ellipse fill="none" stroke="black" cx="54.89" cy="-18" rx="42.26" ry="18"/>
<text text-anchor="middle" x="54.89" y="-13.32" font-family="Times,serif" font-size="14.00">install</text>
</g>
<!-- dopatch&#45;&gt;install -->
<g id="edge2" class="edge">
<title>dopatch&#45;&gt;install</title>
<path fill="none" stroke="black" d="M54.89,-71.7C54.89,-64.41 54.89,-55.73 54.89,-47.54"/>
<polygon fill="black" stroke="black" points="58.39,-47.62 54.89,-37.62 51.39,-47.62 58.39,-47.62"/>
</g>
</g>
</svg>
